<svg width="97" height="99" viewBox="0 0 97 99" fill="none" xmlns="http://www.w3.org/2000/svg">
<g filter="url(#filter0_d_370_4)">
<path d="M52.5382 45.0337L65.4358 32.6757C66.1492 31.9679 66.544 31.0199 66.5351 30.0359C66.5261 29.0519 66.1142 28.1107 65.388 27.4149C64.6619 26.7191 63.6795 26.3244 62.6526 26.3159C61.6256 26.3073 60.6363 26.6856 59.8976 27.3692L47 39.7272L34.1025 27.3692C33.3638 26.6856 32.3744 26.3073 31.3475 26.3159C30.3205 26.3244 29.3382 26.7191 28.612 27.4149C27.8858 28.1107 27.4739 29.0519 27.465 30.0359C27.4561 31.0199 27.8508 31.9679 28.5643 32.6757L41.4619 45.0337L28.5643 57.3917C27.8508 58.0994 27.4561 59.0474 27.465 60.0314C27.4739 61.0154 27.8858 61.9566 28.612 62.6524C29.3382 63.3482 30.3205 63.7429 31.3475 63.7514C32.3744 63.76 33.3638 63.3817 34.1025 62.6981L47 50.3401L59.8976 62.6981C60.6363 63.3817 61.6256 63.76 62.6526 63.7514C63.6795 63.7429 64.6619 63.3482 65.388 62.6524C66.1142 61.9566 66.5261 61.0154 66.5351 60.0314C66.544 59.0474 66.1492 58.0994 65.4358 57.3917L52.5382 45.0337Z" fill="#3B7D88"/>
<g filter="url(#filter1_i_370_4)">
<path d="M74.6904 18.5013C71.0774 14.917 66.7556 12.058 61.9771 10.0912C57.1986 8.12442 52.0591 7.08917 46.8586 7.04587C41.6581 7.00257 36.5006 7.95209 31.6872 9.83903C26.8737 11.726 22.5007 14.5126 18.8232 18.0362C15.1458 21.5598 12.2375 25.7498 10.2682 30.3619C8.29883 34.974 7.30785 39.9156 7.35304 44.8986C7.39823 49.8815 8.47869 54.806 10.5314 59.3845C12.5841 63.9631 15.5679 68.1041 19.3087 71.566C22.9217 75.1503 27.2435 78.0093 32.022 79.9761C36.8005 81.9429 41.94 82.9781 47.1405 83.0214C52.341 83.0647 57.4985 82.1152 62.3119 80.2283C67.1254 78.3413 71.4984 75.5548 75.1759 72.0311C78.8533 68.5075 81.7616 64.3174 83.7309 59.7054C85.7003 55.0933 86.6912 50.1516 86.646 45.1687C86.6009 40.1858 85.5204 35.2613 83.4677 30.6828C81.415 26.1042 78.4312 21.9632 74.6904 18.5013ZM65.4353 57.3916C65.8094 57.7378 66.1078 58.1519 66.313 58.6098C66.5183 59.0676 66.6264 59.5601 66.6309 60.0584C66.6354 60.5567 66.5363 61.0508 66.3394 61.512C66.1424 61.9732 65.8516 62.3922 65.4838 62.7446C65.1161 63.097 64.6788 63.3756 64.1975 63.5643C63.7161 63.753 63.2004 63.848 62.6803 63.8436C62.1603 63.8393 61.6463 63.7358 61.1685 63.5391C60.6906 63.3424 60.2584 63.0565 59.8971 62.6981L46.9995 50.3401L34.1019 62.6981C33.3633 63.3817 32.3739 63.76 31.347 63.7514C30.32 63.7429 29.3377 63.3482 28.6115 62.6524C27.8853 61.9566 27.4734 61.0153 27.4645 60.0314C27.4555 59.0474 27.8503 58.0994 28.5638 57.3916L41.4614 45.0336L28.5638 32.6757C27.8503 31.9679 27.4555 31.0199 27.4645 30.0359C27.4734 29.052 27.8853 28.1107 28.6115 27.4149C29.3377 26.7191 30.32 26.3244 31.347 26.3159C32.3739 26.3073 33.3633 26.6856 34.1019 27.3692L46.9995 39.7272L59.8971 27.3692C60.6358 26.6856 61.6252 26.3073 62.6521 26.3159C63.6791 26.3244 64.6614 26.7191 65.3876 27.4149C66.1138 28.1107 66.5257 29.052 66.5346 30.0359C66.5435 31.0199 66.1488 31.9679 65.4353 32.6757L52.5377 45.0336L65.4353 57.3916Z" fill="#B0CBD0"/>
</g>
</g>
<defs>
<filter id="filter0_d_370_4" x="-4" y="0" width="108" height="105.067" filterUnits="userSpaceOnUse" color-interpolation-filters="sRGB">
<feFlood flood-opacity="0" result="BackgroundImageFix"/>
<feColorMatrix in="SourceAlpha" type="matrix" values="0 0 0 0 0 0 0 0 0 0 0 0 0 0 0 0 0 0 127 0" result="hardAlpha"/>
<feOffset dx="3" dy="8"/>
<feGaussianBlur stdDeviation="3.5"/>
<feComposite in2="hardAlpha" operator="out"/>
<feColorMatrix type="matrix" values="0 0 0 0 0 0 0 0 0 0 0 0 0 0 0 0 0 0 0.26 0"/>
<feBlend mode="normal" in2="BackgroundImageFix" result="effect1_dropShadow_370_4"/>
<feBlend mode="normal" in="SourceGraphic" in2="effect1_dropShadow_370_4" result="shape"/>
</filter>
<filter id="filter1_i_370_4" x="7.35156" y="7.04445" width="79.2959" height="79.9784" filterUnits="userSpaceOnUse" color-interpolation-filters="sRGB">
<feFlood flood-opacity="0" result="BackgroundImageFix"/>
<feBlend mode="normal" in="SourceGraphic" in2="BackgroundImageFix" result="shape"/>
<feColorMatrix in="SourceAlpha" type="matrix" values="0 0 0 0 0 0 0 0 0 0 0 0 0 0 0 0 0 0 127 0" result="hardAlpha"/>
<feOffset dy="4"/>
<feGaussianBlur stdDeviation="2"/>
<feComposite in2="hardAlpha" operator="arithmetic" k2="-1" k3="1"/>
<feColorMatrix type="matrix" values="0 0 0 0 0 0 0 0 0 0 0 0 0 0 0 0 0 0 0.25 0"/>
<feBlend mode="normal" in2="shape" result="effect1_innerShadow_370_4"/>
</filter>
</defs>
</svg>
