<svg width="55" height="62" viewBox="0 0 55 62" fill="none" xmlns="http://www.w3.org/2000/svg">
<g filter="url(#filter0_i_281_19)">
<path d="M0 0L5.00566 55.7833L27.4666 62L49.9904 55.7606L55 0H0ZM44.6009 12.7802L42.9346 31.3635L42.9396 31.4638L42.9327 31.6946V31.6926L41.7488 44.6863L41.6184 45.8407L27.5 49.7169L27.489 49.7268L13.395 45.8288L12.4407 35.086H19.3521L19.8424 40.5486L27.502 42.6093L27.5 42.6132L35.188 40.5224L36.0004 31.6269H19.929L19.7911 30.1231L19.477 26.6002L19.3122 24.7085H36.6112L37.2405 17.7901H10.8925L10.7546 16.2873L10.4409 12.7634L10.2757 10.8717H44.7657L44.6009 12.7802Z" fill="#8E27CE"/>
</g>
<defs>
<filter id="filter0_i_281_19" x="0" y="0" width="58" height="69" filterUnits="userSpaceOnUse" color-interpolation-filters="sRGB">
<feFlood flood-opacity="0" result="BackgroundImageFix"/>
<feBlend mode="normal" in="SourceGraphic" in2="BackgroundImageFix" result="shape"/>
<feColorMatrix in="SourceAlpha" type="matrix" values="0 0 0 0 0 0 0 0 0 0 0 0 0 0 0 0 0 0 127 0" result="hardAlpha"/>
<feOffset dx="3" dy="7"/>
<feGaussianBlur stdDeviation="3.5"/>
<feComposite in2="hardAlpha" operator="arithmetic" k2="-1" k3="1"/>
<feColorMatrix type="matrix" values="0 0 0 0 0 0 0 0 0 0 0 0 0 0 0 0 0 0 0.25 0"/>
<feBlend mode="normal" in2="shape" result="effect1_innerShadow_281_19"/>
</filter>
</defs>
</svg>
