<svg width="45" height="54" viewBox="0 0 45 54" fill="none" xmlns="http://www.w3.org/2000/svg">
<g filter="url(#filter0_i_270_53)">
<path d="M44.1461 16.5829L23.5797 0.384519C22.8777 -0.125834 22.1285 -0.130507 21.4201 0.384519L0.853768 16.5829C0.326425 16.9982 0 17.74 0 18.4816V34.6799C0 35.4216 0.326425 36.1633 0.853856 36.5786L21.4202 52.7793C22.1222 53.2897 22.8714 53.2943 23.5798 52.7793L44.1461 36.5786C44.6735 36.1634 45 35.4216 45 34.6799V18.4816C44.9999 17.74 44.6735 16.9982 44.1461 16.5829ZM24.4335 6.55518L39.5758 18.4816L32.8208 23.8217L24.4335 17.2058V6.55518ZM20.5664 6.55518V17.2058L12.1791 23.8217L5.42407 18.4816L20.5664 6.55518ZM3.86718 22.7537L8.71372 26.5808L3.86718 30.4079V22.7537ZM20.5664 46.6064L5.42407 34.68L12.1791 29.3398L20.5664 35.9557V46.6064ZM22.5 31.9802L15.6695 26.5808L22.5 21.1813L29.3304 26.5808L22.5 31.9802ZM24.4335 46.6064V35.9557L32.8208 29.3398L39.5758 34.68L24.4335 46.6064ZM41.1327 30.4079L36.2862 26.5808L41.1327 22.7537V30.4079Z" fill="#8E27CE"/>
</g>
<defs>
<filter id="filter0_i_270_53" x="0" y="0" width="57" height="62.1638" filterUnits="userSpaceOnUse" color-interpolation-filters="sRGB">
<feFlood flood-opacity="0" result="BackgroundImageFix"/>
<feBlend mode="normal" in="SourceGraphic" in2="BackgroundImageFix" result="shape"/>
<feColorMatrix in="SourceAlpha" type="matrix" values="0 0 0 0 0 0 0 0 0 0 0 0 0 0 0 0 0 0 127 0" result="hardAlpha"/>
<feOffset dx="12" dy="9"/>
<feGaussianBlur stdDeviation="6.5"/>
<feComposite in2="hardAlpha" operator="arithmetic" k2="-1" k3="1"/>
<feColorMatrix type="matrix" values="0 0 0 0 0 0 0 0 0 0 0 0 0 0 0 0 0 0 0.35 0"/>
<feBlend mode="normal" in2="shape" result="effect1_innerShadow_270_53"/>
</filter>
</defs>
</svg>
