<svg width="64" height="38" viewBox="0 0 64 38" fill="none" xmlns="http://www.w3.org/2000/svg">
<path d="M63.3349 36.2198C61.0549 36.7998 59.6449 36.2448 58.3799 34.3448C55.5399 30.0898 52.4049 26.0298 49.3799 21.8948C48.9899 21.3598 48.5849 20.8348 48.0799 20.1698C44.4999 24.9998 40.9249 29.5998 37.5699 34.3848C36.3699 36.0948 35.1099 36.8398 32.8699 36.2348L46.3299 18.1698L33.7999 1.85483C35.9549 1.43483 37.4449 1.64984 38.7649 3.57984C41.6799 7.83984 44.8949 11.8948 48.0999 16.1848C51.3249 11.9098 54.4999 7.84983 57.4999 3.62983C58.7049 1.91983 59.9999 1.26983 62.1649 1.89983C60.5249 4.07483 58.9199 6.21484 57.3049 8.33984C55.1249 11.2048 52.9849 14.1048 50.7249 16.9098C49.9199 17.9098 50.0499 18.5598 50.7699 19.5048C54.9499 24.9998 59.0799 30.5498 63.3349 36.2198ZM0.664902 17.8698C1.0249 16.0648 1.2649 14.2248 1.7649 12.4548C4.7649 1.73983 17.0649 -2.71517 25.5149 3.92483C30.4649 7.81983 31.6949 13.3098 31.4499 19.4998H3.5499C3.1299 30.6048 11.1249 37.3098 21.3149 33.8898C24.8899 32.6898 26.9949 29.8898 28.0499 26.3898C28.5849 24.6348 29.4699 24.3598 31.1199 24.8598C30.2749 29.2398 28.3599 32.8998 24.3599 35.1898C18.3599 38.6198 9.7949 37.5098 5.2899 32.7448C2.6299 29.9448 1.4999 26.4598 0.999902 22.6948C0.924902 22.0948 0.769902 21.5048 0.649902 20.9098C0.659902 19.8965 0.664902 18.8832 0.664902 17.8698ZM3.5999 17.1248H28.8149C28.6499 9.09484 23.6499 3.38984 16.8149 3.33984C9.3149 3.27984 3.9249 8.84984 3.5999 17.1248Z" fill="#8E27CE" fill-opacity="0.7"/>
</svg>
