<svg width="51" height="75" viewBox="0 0 51 75" fill="none" xmlns="http://www.w3.org/2000/svg">
<g filter="url(#filter0_i_311_5)">
<path d="M17.0583 60.3899C17.0583 60.7001 16.8218 60.9482 16.5236 60.9482C16.1843 60.9947 15.9478 60.7466 15.9478 60.3899C15.9478 60.0797 16.1843 59.8316 16.4825 59.8316C16.7909 59.7851 17.0583 60.0332 17.0583 60.3899ZM13.8605 59.692C13.7885 60.0022 13.9942 60.3589 14.3026 60.4519C14.57 60.607 14.8784 60.4519 14.9401 60.1418C15.0018 59.8316 14.8065 59.4749 14.498 59.3353C14.2306 59.2268 13.9325 59.3818 13.8605 59.692ZM18.4052 59.4284C18.1071 59.5369 17.9014 59.8316 17.9323 60.1883C17.9631 60.4985 18.2304 60.7001 18.5389 60.5915C18.8371 60.4829 19.0427 60.1883 19.0119 59.8781C18.981 59.5835 18.7034 59.3818 18.4052 59.4284ZM25.171 0C10.9095 0 0 16.3304 0 37.8406C0 55.0395 7.17702 69.757 17.4284 74.9368C18.7446 75.2935 19.2073 74.0683 19.2073 73.0603C19.2073 72.0988 19.1764 66.7949 19.1764 63.5381C19.1764 63.5381 11.9788 65.8644 10.4673 58.9166C10.4673 58.9166 9.29516 54.4036 7.60887 53.2405C7.60887 53.2405 5.25423 50.8057 7.77339 50.8522C7.77339 50.8522 10.3337 51.1624 11.7423 54.8534C13.9942 60.8396 17.7677 59.1182 19.2381 58.0946C19.4746 55.6133 20.1429 53.8918 20.8833 52.8683C15.1355 51.9068 9.33629 50.6506 9.33629 35.7315C9.33629 31.4666 10.1177 29.3265 11.7629 26.597C11.4956 25.5889 10.6216 21.4327 12.0302 16.0667C14.1792 15.0587 19.125 20.254 19.125 20.254C21.1815 19.3856 23.3921 18.9358 25.5823 18.9358C27.7724 18.9358 29.9831 19.3856 32.0395 20.254C32.0395 20.254 36.9853 15.0432 39.1343 16.0667C40.5429 21.4482 39.669 25.5889 39.4016 26.597C41.0468 29.342 42.0544 31.4821 42.0544 35.7315C42.0544 50.6971 35.9982 51.8913 30.2504 52.8683C31.1964 54.0935 31.9984 56.4197 31.9984 60.0642C31.9984 65.2906 31.9675 71.7576 31.9675 73.0293C31.9675 74.0373 32.4405 75.2625 33.7464 74.9058C44.0286 69.757 51 55.0395 51 37.8406C51 16.3304 39.4325 0 25.171 0ZM9.99435 53.4886C9.86068 53.6437 9.89153 54.0004 10.0663 54.2951C10.2308 54.5432 10.4673 54.6518 10.601 54.4502C10.7347 54.2951 10.7038 53.9384 10.529 53.6437C10.3645 53.3956 10.128 53.287 9.99435 53.4886ZM8.88387 52.2324C8.8119 52.4341 8.91472 52.6822 9.12036 52.8373C9.28488 52.9924 9.49052 52.9458 9.5625 52.7287C9.63448 52.5271 9.53165 52.279 9.32601 52.1239C9.12036 52.0308 8.95585 52.0774 8.88387 52.2324ZM12.2153 57.7535C12.0508 57.9551 12.1125 58.4203 12.349 58.715C12.5855 59.0717 12.8837 59.1182 13.0173 58.8701C13.151 58.6685 13.0893 58.2032 12.8837 57.9085C12.6575 57.5518 12.349 57.5053 12.2153 57.7535ZM11.0431 55.4737C10.8786 55.6288 10.8786 56.032 11.0431 56.3887C11.2077 56.7454 11.4853 56.9005 11.619 56.7454C11.7835 56.5438 11.7835 56.1406 11.619 55.7839C11.475 55.4272 11.2077 55.2721 11.0431 55.4737Z" fill="#31325E"/>
</g>
<defs>
<filter id="filter0_i_311_5" x="0" y="0" width="55" height="79" filterUnits="userSpaceOnUse" color-interpolation-filters="sRGB">
<feFlood flood-opacity="0" result="BackgroundImageFix"/>
<feBlend mode="normal" in="SourceGraphic" in2="BackgroundImageFix" result="shape"/>
<feColorMatrix in="SourceAlpha" type="matrix" values="0 0 0 0 0 0 0 0 0 0 0 0 0 0 0 0 0 0 127 0" result="hardAlpha"/>
<feOffset dx="5" dy="6"/>
<feGaussianBlur stdDeviation="2"/>
<feComposite in2="hardAlpha" operator="arithmetic" k2="-1" k3="1"/>
<feColorMatrix type="matrix" values="0 0 0 0 0 0 0 0 0 0 0 0 0 0 0 0 0 0 0.25 0"/>
<feBlend mode="normal" in2="shape" result="effect1_innerShadow_311_5"/>
</filter>
</defs>
</svg>
