<svg width="53" height="75" viewBox="0 0 53 75" fill="none" xmlns="http://www.w3.org/2000/svg">
<g filter="url(#filter0_i_311_4)">
<path d="M51.7598 18.75C50.1048 15.0952 29.8037 0 26.4972 0C23.1907 0 2.88162 15.0571 1.23694 18.75C-0.407744 22.4429 -0.416874 52.5586 1.23694 56.25C2.89075 59.9414 23.1942 75 26.4972 75C29.8003 75 50.1048 59.9238 51.7586 56.25C53.4125 52.5762 53.4147 22.4121 51.7598 18.75ZM33.3419 60.6768C32.8853 60.6768 28.6726 55.437 29.0048 55.0093C29.1041 54.8818 29.7192 54.7925 31.0078 54.7412C31.0078 50.8989 31.0752 44.6938 31.1151 42.0967C31.1151 41.8037 31.0649 41.5942 31.0649 41.2397H21.9421C21.9421 42.2798 21.8896 46.5425 22.0985 51.9155C22.1247 52.5806 21.9181 52.7944 21.4433 52.7856C20.2872 52.7856 19.1298 52.7695 17.9725 52.7739C17.5045 52.7739 17.3025 52.5498 17.3174 51.8789C17.4224 46.9805 17.6598 39.5742 17.3002 20.7261V20.2617C16.1966 20.2105 15.4307 20.1152 15.3303 19.9922C14.997 19.5645 19.2725 14.3247 19.7233 14.3247C20.1742 14.3247 24.4223 19.5659 24.0913 19.9922C23.992 20.1196 23.1896 20.2105 22.1772 20.2617V20.7246C21.901 24.4966 21.949 32.3833 21.877 36.1626H31.0375C31.0375 35.4961 31.082 31.0737 30.9005 23.9106C30.8891 23.4141 31.009 23.1533 31.381 23.1489C32.6445 23.1372 33.9091 23.1299 35.1737 23.1401C35.5686 23.1401 35.6953 23.3921 35.6873 23.9282C35.2673 51.9492 35.6097 49.9937 35.6097 54.7397C36.6221 54.791 37.5295 54.8862 37.6288 55.0093C37.9575 55.4355 33.7938 60.6768 33.3419 60.6768Z" fill="#31325E"/>
</g>
<defs>
<filter id="filter0_i_311_4" x="0" y="0" width="58" height="81" filterUnits="userSpaceOnUse" color-interpolation-filters="sRGB">
<feFlood flood-opacity="0" result="BackgroundImageFix"/>
<feBlend mode="normal" in="SourceGraphic" in2="BackgroundImageFix" result="shape"/>
<feColorMatrix in="SourceAlpha" type="matrix" values="0 0 0 0 0 0 0 0 0 0 0 0 0 0 0 0 0 0 127 0" result="hardAlpha"/>
<feOffset dx="5" dy="7"/>
<feGaussianBlur stdDeviation="3"/>
<feComposite in2="hardAlpha" operator="arithmetic" k2="-1" k3="1"/>
<feColorMatrix type="matrix" values="0 0 0 0 0 0 0 0 0 0 0 0 0 0 0 0 0 0 0.25 0"/>
<feBlend mode="normal" in2="shape" result="effect1_innerShadow_311_4"/>
</filter>
</defs>
</svg>
