<svg width="50" height="74" viewBox="0 0 50 74" fill="none" xmlns="http://www.w3.org/2000/svg">
<g filter="url(#filter0_i_311_3)">
<path d="M25.0056 18.0273C17.9113 18.0273 12.1891 26.4982 12.1891 37C12.1891 47.5018 17.9113 55.9727 25.0056 55.9727C32.0998 55.9727 37.8221 47.5018 37.8221 37C37.8221 26.4982 32.0998 18.0273 25.0056 18.0273ZM25.0056 49.3347C20.4211 49.3347 16.6732 43.8031 16.6732 37C16.6732 30.1969 20.4099 24.6653 25.0056 24.6653C29.6012 24.6653 33.338 30.1969 33.338 37C33.338 43.8031 29.5901 49.3347 25.0056 49.3347ZM41.3358 17.2513C41.3358 19.7116 39.9972 21.6766 38.3463 21.6766C36.6843 21.6766 35.3569 19.6951 35.3569 17.2513C35.3569 14.8074 36.6955 12.826 38.3463 12.826C39.9972 12.826 41.3358 14.8074 41.3358 17.2513ZM49.8243 21.7426C49.6347 15.8147 48.72 10.5638 45.7864 6.23753C42.8639 1.9113 39.3168 0.557291 35.3123 0.260069C31.1852 -0.0866897 18.8148 -0.0866897 14.6877 0.260069C10.6944 0.540779 7.14724 1.89479 4.21361 6.22102C1.27998 10.5472 0.376464 15.7982 0.175683 21.7261C-0.0585611 27.8357 -0.0585611 46.1478 0.175683 52.2574C0.36531 58.1853 1.27998 63.4362 4.21361 67.7625C7.14724 72.0887 10.6832 73.4427 14.6877 73.7399C18.8148 74.0867 31.1852 74.0867 35.3123 73.7399C39.3168 73.4592 42.8639 72.1052 45.7864 67.7625C48.7089 63.4362 49.6235 58.1853 49.8243 52.2574C50.0586 46.1478 50.0586 27.8522 49.8243 21.7426ZM44.4925 58.8128C43.6224 62.0492 41.9381 64.5426 39.7407 65.847C36.4501 67.779 28.6419 67.3331 25.0056 67.3331C21.3692 67.3331 13.5499 67.7625 10.2705 65.847C8.08422 64.5591 6.39989 62.0657 5.51868 58.8128C4.21361 53.9416 4.51478 42.383 4.51478 37C4.51478 31.617 4.22476 20.0418 5.51868 15.1872C6.38873 11.9508 8.07306 9.45744 10.2705 8.15296C13.5611 6.22102 21.3692 6.66685 25.0056 6.66685C28.6419 6.66685 36.4612 6.23753 39.7407 8.15296C41.9269 9.44092 43.6113 11.9343 44.4925 15.1872C45.7975 20.0584 45.4964 31.617 45.4964 37C45.4964 42.383 45.7975 53.9582 44.4925 58.8128Z" fill="#31325E"/>
</g>
<defs>
<filter id="filter0_i_311_3" x="0" y="0" width="50" height="74" filterUnits="userSpaceOnUse" color-interpolation-filters="sRGB">
<feFlood flood-opacity="0" result="BackgroundImageFix"/>
<feBlend mode="normal" in="SourceGraphic" in2="BackgroundImageFix" result="shape"/>
<feColorMatrix in="SourceAlpha" type="matrix" values="0 0 0 0 0 0 0 0 0 0 0 0 0 0 0 0 0 0 127 0" result="hardAlpha"/>
<feOffset dx="-1"/>
<feComposite in2="hardAlpha" operator="arithmetic" k2="-1" k3="1"/>
<feColorMatrix type="matrix" values="0 0 0 0 0.192157 0 0 0 0 0.196078 0 0 0 0 0.368627 0 0 0 0.7 0"/>
<feBlend mode="normal" in2="shape" result="effect1_innerShadow_311_3"/>
</filter>
</defs>
</svg>
