<svg width="57" height="64" viewBox="0 0 57 64" fill="none" xmlns="http://www.w3.org/2000/svg">
<g filter="url(#filter0_i_281_55)">
<path fill-rule="evenodd" clip-rule="evenodd" d="M39.2044 21.406C39.9191 23.7275 40.4339 26.0975 40.6031 28.554C40.8133 31.6015 40.7171 34.6275 40.1449 37.625C40.1293 37.7075 40.0964 37.785 40.0719 37.865C39.8924 37.8655 39.7094 37.8405 39.534 37.871C38.0515 38.1325 36.5704 38.4035 35.0893 38.673C33.5583 38.9515 32.0251 39.219 30.4968 39.5165C29.9553 39.6215 29.2851 39.496 29.0664 40.337C29.0602 40.36 28.9979 40.364 28.9618 40.377L29.0357 35.3515C29.0103 31.3095 28.9854 27.2675 28.9604 23.2255L29.6738 23.088C30.8406 22.8735 32.0073 22.656 33.1749 22.4475C34.5683 22.199 35.963 21.9575 37.3573 21.715C37.9722 21.6075 38.5881 21.509 39.2044 21.406Z" fill="#8E27CE" fill-opacity="0.7"/>
<path fill-rule="evenodd" clip-rule="evenodd" d="M27.4887 55.027C26.7362 54.3005 25.9573 53.606 25.2359 52.842C21.3541 48.731 18.5148 43.8925 17.1165 38.059C16.7313 36.4535 16.4744 34.822 16.392 33.163C16.3341 32.002 16.2504 30.8305 16.3234 29.6755C16.518 26.6035 16.9134 23.561 17.7159 20.602L17.76 20.533C17.8379 20.6495 17.9501 20.7525 17.9898 20.884C18.7731 23.474 19.5506 26.066 20.3241 28.6595C22.7546 36.8095 25.182 44.9615 27.6165 53.1095C27.6642 53.2685 27.7875 53.399 27.8762 53.5425L27.4887 55.027Z" fill="#8E27CE" fill-opacity="0.7"/>
<path fill-rule="evenodd" clip-rule="evenodd" d="M39.2045 21.406C38.5882 21.509 37.9719 21.6075 37.3569 21.714C35.9626 21.9565 34.5679 22.198 33.1745 22.4465C32.0069 22.655 30.8402 22.8725 29.6735 23.087L28.9601 23.2245L28.9547 22.702C28.9311 22.2725 28.8906 21.8435 28.8861 21.414C28.8554 18.675 28.8363 15.936 28.806 13.197C28.7873 11.4825 28.7592 9.76855 28.7281 8.05455C28.7089 6.98955 28.6884 5.92405 28.6457 4.86055C28.6225 4.28905 28.5406 3.72055 28.5072 3.14905C28.4885 2.82055 28.5143 2.48955 28.5201 2.15955C28.8839 2.95105 29.2397 3.74855 29.6138 4.53405C30.2047 5.77605 31.1461 6.69105 31.9935 7.68955C35.3436 11.6355 37.722 16.2235 39.2045 21.406Z" fill="#8E27CE" fill-opacity="0.7"/>
<path fill-rule="evenodd" clip-rule="evenodd" d="M28.9612 40.3765C28.9973 40.3635 29.0601 40.3595 29.0659 40.3365C29.2845 39.4955 29.9547 39.621 30.4962 39.516C32.0245 39.219 33.5577 38.951 35.0887 38.6725C36.5698 38.403 38.0509 38.132 39.5334 37.8705C39.7088 37.8395 39.8918 37.865 40.0713 37.8645C39.7943 38.9745 39.5761 40.1085 39.2248 41.188C38.8258 42.4125 38.3431 43.6075 37.8305 44.779C37.0646 46.5305 36.1103 48.164 35.0014 49.6605C34.1469 50.8145 33.1943 51.881 32.2396 52.9345C31.7119 53.517 31.0898 53.9915 30.5109 54.515L30.3608 54.4L29.8202 53.881L29.2609 52.5045C28.8757 50.893 28.6735 49.2525 28.6401 47.5855L28.6504 47.305L28.7265 46.092C28.7519 45.678 28.7858 45.2645 28.8013 44.8495C28.8588 43.3585 28.9087 41.8675 28.9612 40.3765Z" fill="#8E27CE" fill-opacity="0.7"/>
<path fill-rule="evenodd" clip-rule="evenodd" d="M28.9611 40.3766C28.9086 41.8676 28.8587 43.3586 28.8021 44.8501C28.7866 45.2651 28.7527 45.6786 28.7273 46.0926L28.3867 46.2371C27.6301 43.7361 26.8731 41.2616 26.1325 38.7806C24.9079 34.6761 23.698 30.5651 22.4751 26.4596C21.4879 23.1456 20.4926 19.8351 19.4916 16.5261C19.4448 16.3711 19.3103 16.2501 19.2168 16.1131L21.397 11.6121C21.4719 11.7581 21.5707 11.8946 21.6179 12.0516C22.6266 15.4031 23.6334 18.7551 24.6318 22.1106C25.9303 26.4756 27.2208 30.8441 28.5185 35.2096C28.5701 35.3841 28.6556 35.5451 28.7371 35.7406L29.0355 35.3506C29.0106 37.0261 28.9856 38.7011 28.9611 40.3766Z" fill="#8E27CE" fill-opacity="0.7"/>
<path fill-rule="evenodd" clip-rule="evenodd" d="M19.2173 16.1135C19.3108 16.2505 19.4449 16.3715 19.4921 16.5265C20.4931 19.8355 21.4884 23.146 22.4757 26.46C23.6985 30.5655 24.9084 34.6765 26.133 38.781C26.8731 41.2615 27.6302 43.7365 28.3872 46.2375L28.7279 46.093L28.6517 47.306L28.5827 47.5855C28.4642 48.9135 28.3645 50.2445 28.2202 51.5695C28.1476 52.2335 27.9935 52.8855 27.8764 53.543C27.7882 53.3995 27.6644 53.269 27.6168 53.11C25.1823 44.9615 22.7549 36.81 20.3244 28.66C19.5509 26.0665 18.7733 23.4745 17.99 20.8845C17.9504 20.753 17.8386 20.65 17.7603 20.5335C18.2456 19.06 18.7315 17.5865 19.2173 16.1135Z" fill="#8E27CE" fill-opacity="0.7"/>
<path fill-rule="evenodd" clip-rule="evenodd" d="M29.0354 35.351L28.7371 35.741C28.6556 35.5455 28.5701 35.384 28.5184 35.21C27.2212 30.8445 25.9303 26.476 24.6317 22.111C23.6333 18.7555 22.6265 15.4035 21.6178 12.052C21.5711 11.895 21.4722 11.758 21.397 11.6125L24.0933 7.63C24.1784 7.7575 24.2995 7.871 24.3436 8.0145C25.0922 10.475 25.8341 12.9385 26.5715 15.4035C27.2604 17.7055 27.9391 20.011 28.636 22.31C28.6827 22.464 28.8453 22.573 28.9539 22.703L28.9593 23.2255C28.9851 27.2665 29.0105 31.309 29.0354 35.351Z" fill="#8E27CE" fill-opacity="0.7"/>
<path fill-rule="evenodd" clip-rule="evenodd" d="M28.9548 22.702C28.8462 22.572 28.6836 22.463 28.6369 22.309C27.94 20.01 27.2613 17.7045 26.5724 15.4025C25.835 12.9375 25.0931 10.4745 24.3445 8.01348C24.3004 7.86998 24.1793 7.75648 24.0942 7.62898C24.9711 6.66498 25.8207 5.66648 26.7327 4.74698C27.5436 3.92998 28.1956 3.05398 28.2254 1.76298C28.2267 1.70948 28.2517 1.65598 28.29 1.50598L28.5211 2.15898C28.5153 2.48948 28.489 2.81998 28.5082 3.14848C28.5416 3.71998 28.6235 4.28848 28.6467 4.85998C28.6894 5.92348 28.7099 6.98898 28.7291 8.05398C28.7598 9.76798 28.7878 11.482 28.807 13.1965C28.8368 15.9355 28.8564 18.6745 28.8871 21.4135C28.8907 21.844 28.9308 22.2725 28.9548 22.702Z" fill="#8E27CE" fill-opacity="0.7"/>
<path fill-rule="evenodd" clip-rule="evenodd" d="M27.8757 53.5425C27.9928 52.885 28.1469 52.2325 28.2195 51.569C28.3642 50.2445 28.4635 48.913 28.582 47.585L28.6114 47.58L28.6408 47.5855C28.6741 49.2525 28.8763 50.893 29.2615 52.5045C29.1831 52.6205 29.0723 52.724 29.0308 52.855C28.7071 53.88 28.4021 54.913 28.0765 55.938C28.032 56.078 27.9082 56.187 27.8209 56.31L27.4883 55.027L27.8757 53.5425Z" fill="#A9AA88"/>
<path fill-rule="evenodd" clip-rule="evenodd" d="M27.8213 56.3105C27.9086 56.1875 28.0328 56.0785 28.0769 55.9385C28.4024 54.9135 28.7079 53.881 29.0312 52.8555C29.0726 52.7245 29.1831 52.621 29.2619 52.505L29.8207 53.882C29.7103 54.058 29.558 54.2165 29.4966 54.4125L28.426 57.942C28.3819 58.0835 28.2314 58.1835 28.1308 58.303L27.8213 56.3105Z" fill="#B6B598"/>
<path fill-rule="evenodd" clip-rule="evenodd" d="M28.1309 58.3025C28.2319 58.1835 28.382 58.083 28.4261 57.9415L29.4966 54.412C29.5576 54.2165 29.7104 54.0575 29.8208 53.8815L30.3619 54.4C30.1005 54.69 29.9553 55.025 30.0426 55.4485L29.8783 56.0525C29.8035 56.156 29.6952 56.246 29.6583 56.3645C29.2847 57.566 28.928 58.774 28.5517 59.9755C28.504 60.128 28.3718 60.2475 28.2783 60.3815C28.2297 59.688 28.1803 58.996 28.1309 58.3025Z" fill="#C2C1A7"/>
<path fill-rule="evenodd" clip-rule="evenodd" d="M28.2789 60.3815C28.372 60.247 28.5042 60.1275 28.5523 59.9755C28.9286 58.7745 29.2853 57.5665 29.6589 56.3645C29.6959 56.2465 29.8037 56.156 29.8789 56.0525L29.6523 58.825C29.5917 58.9035 29.504 58.972 29.475 59.0635C29.219 59.8705 28.9776 60.6835 28.7207 61.4905C28.6677 61.657 28.5661 61.804 28.4869 61.9595C28.4165 61.856 28.2905 61.756 28.2847 61.648C28.262 61.2275 28.2776 60.804 28.2789 60.3815Z" fill="#CECDB7"/>
<path fill-rule="evenodd" clip-rule="evenodd" d="M28.4863 61.9594C28.5656 61.8034 28.6671 61.6565 28.7201 61.4905C28.9775 60.684 29.2184 59.8709 29.4745 59.0634C29.5034 58.9719 29.5916 58.904 29.6517 58.825L29.6571 60.645L29.1147 62.207L28.4863 61.9594Z" fill="#DBDAC7"/>
<path fill-rule="evenodd" clip-rule="evenodd" d="M29.1147 62.2075L29.6571 60.6455L29.7689 62.4935L29.1147 62.2075Z" fill="#EBE9DC"/>
<path fill-rule="evenodd" clip-rule="evenodd" d="M30.0425 55.449C29.9553 55.0255 30.1 54.69 30.3618 54.4005L30.5119 54.5155L30.0425 55.449Z" fill="#CECDB7"/>
<path fill-rule="evenodd" clip-rule="evenodd" d="M28.6408 47.586L28.6114 47.5805L28.582 47.5855L28.6511 47.306L28.6408 47.586Z" fill="#8E27CE" fill-opacity="0.7"/>
</g>
<defs>
<filter id="filter0_i_281_55" x="0" y="0" width="62" height="71" filterUnits="userSpaceOnUse" color-interpolation-filters="sRGB">
<feFlood flood-opacity="0" result="BackgroundImageFix"/>
<feBlend mode="normal" in="SourceGraphic" in2="BackgroundImageFix" result="shape"/>
<feColorMatrix in="SourceAlpha" type="matrix" values="0 0 0 0 0 0 0 0 0 0 0 0 0 0 0 0 0 0 127 0" result="hardAlpha"/>
<feOffset dx="5" dy="7"/>
<feGaussianBlur stdDeviation="3.5"/>
<feComposite in2="hardAlpha" operator="arithmetic" k2="-1" k3="1"/>
<feColorMatrix type="matrix" values="0 0 0 0 0 0 0 0 0 0 0 0 0 0 0 0 0 0 0.25 0"/>
<feBlend mode="normal" in2="shape" result="effect1_innerShadow_281_55"/>
</filter>
</defs>
</svg>
