<svg width="72" height="35" viewBox="0 0 72 35" fill="none" xmlns="http://www.w3.org/2000/svg">
<path d="M15.3636 11.3269C15.3636 11.1019 15.2019 10.8892 14.9431 10.7767L8.08613 7.72627C7.97279 7.67618 7.8435 7.6512 7.71421 7.63865H7.64942C7.52013 7.63865 7.39069 7.67618 7.27749 7.72627L0.420482 10.7767C0.161616 10.8892 0 11.1018 0 11.3269L0.0162316 19.5281C0.0162316 19.6406 0.0971097 19.7531 0.226403 19.8032C0.355836 19.8657 0.517452 19.8657 0.630793 19.8032L4.70618 18.0029C4.96491 17.8904 5.12667 17.6778 5.12667 17.4528V13.6147C5.12667 13.3897 5.28828 13.1771 5.54715 13.0646L7.27749 12.2895C7.40693 12.2269 7.55245 12.2019 7.69797 12.2019C7.8435 12.2019 7.98902 12.2269 8.10236 12.2895L9.83271 13.0646C10.0916 13.1771 10.2532 13.3896 10.2532 13.6147V17.4528C10.2532 17.6778 10.4149 17.8904 10.6737 18.0029L14.7491 19.8032C14.8785 19.8657 15.0401 19.8657 15.1695 19.8032C15.299 19.7531 15.3799 19.6406 15.3799 19.5281L15.3636 11.3269ZM48.3226 0.0375625C48.1933 -0.0125208 48.0315 -0.0125208 47.9182 0.0375625C47.7889 0.100085 47.708 0.200036 47.708 0.312534V8.4389C47.708 8.51386 47.6596 8.58883 47.5625 8.63891C47.4655 8.67634 47.3684 8.67634 47.2714 8.63891L45.5572 7.8763C45.4315 7.82098 45.2894 7.79189 45.1448 7.79189C45.0001 7.79189 44.858 7.82098 44.7323 7.8763L37.8753 10.9393C37.6166 11.0518 37.4548 11.2643 37.4548 11.4893V17.6027C37.4548 17.8277 37.6166 18.0404 37.8753 18.1529L44.7323 21.2159C44.858 21.2712 45.0001 21.3003 45.1448 21.3003C45.2894 21.3003 45.4315 21.2712 45.5572 21.2159L52.4142 18.1529C52.6729 18.0404 52.8347 17.8278 52.8347 17.6027V2.36292C52.8347 2.12538 52.6729 1.91293 52.4142 1.80032L48.3226 0.0375625ZM47.6919 15.59C47.6919 15.6525 47.6596 15.7025 47.5948 15.7275L45.2499 16.7776C45.2172 16.79 45.1812 16.7964 45.1448 16.7964C45.1083 16.7964 45.0724 16.79 45.0396 16.7776L42.6947 15.7275C42.6299 15.7025 42.5976 15.64 42.5976 15.59V13.4896C42.5976 13.4271 42.6299 13.3771 42.6947 13.3521L45.0396 12.3019C45.0724 12.2896 45.1083 12.2831 45.1448 12.2831C45.1812 12.2831 45.2172 12.2896 45.2499 12.3019L47.5948 13.3521C47.6596 13.377 47.6919 13.4397 47.6919 13.4896V15.59ZM71.1415 13.4397C71.4004 13.3272 71.5459 13.1146 71.5459 12.8895V11.4018C71.5459 11.1768 71.3842 10.9643 71.1415 10.8518L64.3331 7.80134C64.2074 7.74604 64.0653 7.71696 63.9207 7.71696C63.7761 7.71696 63.634 7.74604 63.5084 7.80134L56.6513 10.8642C56.3925 10.9767 56.2309 11.1893 56.2309 11.4144V17.5278C56.2309 17.7528 56.3925 17.9653 56.6513 18.0778L63.4598 21.0783C63.7187 21.1908 64.0258 21.1908 64.2684 21.0783L68.3923 19.3032C68.5217 19.2531 68.6026 19.1406 68.6026 19.0281C68.6026 18.9156 68.5217 18.8031 68.3923 18.753L61.5029 15.6901C61.3736 15.6276 61.2927 15.5276 61.2927 15.4151V13.5023C61.2927 13.3898 61.3736 13.2773 61.5029 13.2272L63.6539 12.277C63.7168 12.2464 63.7897 12.2301 63.8641 12.2301C63.9385 12.2301 64.0114 12.2464 64.0744 12.277L66.2252 13.2272C66.3546 13.2897 66.4355 13.3897 66.4355 13.5023V15.0025C66.4355 15.115 66.5164 15.2275 66.6457 15.2775C66.7751 15.34 66.9367 15.34 67.0662 15.2775L71.1415 13.4397Z" fill="#8E27CE"/>
<path d="M36.585 34.1291C36.3425 34.1291 36.1161 34.0791 35.9058 33.9916L33.7549 33.004C33.4314 32.8664 33.5932 32.8164 33.6903 32.7914C34.1269 32.6789 34.2077 32.6538 34.6605 32.4539C34.7091 32.4288 34.7739 32.4414 34.8223 32.4664L36.4719 33.229C36.5365 33.254 36.6174 33.254 36.6658 33.229L43.1186 30.341C43.1832 30.316 43.2157 30.266 43.2157 30.2035V24.4402C43.2157 24.3775 43.1832 24.3277 43.1186 24.3026L36.6658 21.4272C36.6012 21.4021 36.5203 21.4021 36.4719 21.4272L30.0191 24.3026C29.9545 24.3276 29.922 24.3901 29.922 24.4401V30.2034C29.922 30.2535 29.9545 30.3159 30.0191 30.341L31.7819 31.1286C32.7361 31.5037 33.3344 31.0661 33.3344 30.6285V24.9401C33.3344 24.8652 33.4153 24.7901 33.5285 24.7901H34.3533C34.4504 24.7901 34.5473 24.8526 34.5473 24.9401V30.6285C34.5473 31.6162 33.8519 32.1913 32.639 32.1913C32.2671 32.1913 31.976 32.1913 31.1512 31.8787L29.4531 31.1286C29.0327 30.9412 28.7739 30.591 28.7739 30.216V24.4526C28.7739 24.0776 29.0327 23.7274 29.4531 23.54L35.9058 20.652C36.3101 20.477 36.8601 20.477 37.2643 20.652L43.7169 23.54C44.1374 23.7274 44.3963 24.0776 44.3963 24.4526V30.216C44.3963 30.591 44.1374 30.9412 43.7169 31.1286L37.2643 34.0166C37.054 34.0917 36.8114 34.1291 36.585 34.1291ZM38.5742 30.166C35.7441 30.166 35.1619 29.1659 35.1619 28.3157C35.1619 28.2407 35.2428 28.1657 35.356 28.1657H36.1969C36.2939 28.1657 36.3748 28.2157 36.3748 28.2908C36.5042 28.9533 36.8762 29.2784 38.5904 29.2784C39.9488 29.2784 40.5312 29.0408 40.5312 28.4782C40.5312 28.1532 40.3693 27.9157 38.2508 27.7531C36.488 27.6155 35.3883 27.3156 35.3883 26.2279C35.3883 25.2152 36.4881 24.6151 38.3317 24.6151C40.4016 24.6151 41.4206 25.1652 41.55 26.3653C41.55 26.4029 41.5338 26.4404 41.5015 26.4779C41.469 26.5029 41.4206 26.5279 41.372 26.5279H40.5311C40.4502 26.5279 40.3693 26.4779 40.3532 26.4154C40.1591 25.7278 39.6578 25.5027 38.3317 25.5027C36.8438 25.5027 36.6658 25.9029 36.6658 26.2028C36.6658 26.5654 36.8762 26.6779 38.8815 26.8779C40.8707 27.078 41.8087 27.3656 41.8087 28.4407C41.7925 29.5409 40.6282 30.166 38.5742 30.166Z" fill="#539E43"/>
<path d="M65.0227 13.4181C65.0467 13.4059 65.0748 13.3994 65.1035 13.3994C65.1323 13.3994 65.1603 13.4059 65.1843 13.4181L66.4943 14.0057C66.5429 14.0306 66.5752 14.0681 66.5752 14.1182V15.2934C66.5752 15.3434 66.5429 15.3809 66.4943 15.4059L65.1843 15.9935C65.1603 16.0057 65.1323 16.0122 65.1035 16.0122C65.0748 16.0122 65.0467 16.0057 65.0227 15.9935L63.7127 15.4059C63.6642 15.3809 63.6318 15.3434 63.6318 15.2934V14.1182C63.6318 14.0681 63.6642 14.0306 63.7127 14.0057L65.0227 13.4181Z" fill="#539E43"/>
<path d="M28.0376 8.08438C27.9119 8.02908 27.7698 8 27.6252 8C27.4806 8 27.3385 8.02908 27.2128 8.08438L20.4044 11.1222C20.1455 11.2346 20 11.4472 20 11.6722V17.7607C20 17.9857 20.1618 18.1983 20.4044 18.3108L27.2128 21.3488C27.3385 21.4041 27.4806 21.4332 27.6252 21.4332C27.7698 21.4332 27.9119 21.4041 28.0376 21.3488L34.8462 18.3108C35.1049 18.1983 35.2506 17.9857 35.2506 17.7607V11.6723C35.2506 11.4473 35.0887 11.2348 34.8462 11.1223L28.0376 8.08438Z" fill="url(#paint0_linear_286_162)"/>
<defs>
<linearGradient id="paint0_linear_286_162" x1="1059.91" y1="242.906" x2="555.405" y2="1268.35" gradientUnits="userSpaceOnUse">
<stop stop-color="#41873F"/>
<stop offset="0.3288" stop-color="#418B3D"/>
<stop offset="0.6352" stop-color="#419637"/>
<stop offset="0.9319" stop-color="#3FA92D"/>
<stop offset="1" stop-color="#3FAE2A"/>
</linearGradient>
</defs>
</svg>
