<svg width="70" height="56" viewBox="0 0 70 56" fill="none" xmlns="http://www.w3.org/2000/svg">
<path d="M34.8003 33.65C38.3003 33.65 41.1377 31.098 41.1377 27.95C41.1377 24.802 38.3003 22.25 34.8003 22.25C31.3002 22.25 28.4629 24.802 28.4629 27.95C28.4629 31.098 31.3002 33.65 34.8003 33.65Z" fill="#8E27CE" fill-opacity="0.72"/>
<path d="M58.871 18.55C57.648 18.15 56.3694 17.75 55.0352 17.4C55.3688 16.2 55.6467 15 55.8691 13.85C57.0365 7.25 55.7579 2.6 52.2001 0.8C51.1438 0.25 49.9764 0 48.6422 0C44.7509 0 39.8033 2.6 34.8001 6.95C29.7968 2.6 24.8492 0 20.9579 0C19.6237 0 18.4563 0.25 17.4 0.8C13.8422 2.65 12.5636 7.3 13.731 13.85C13.9534 15 14.2313 16.2 14.5649 17.4C13.2307 17.75 11.9521 18.1 10.7291 18.55C3.7802 20.95 0 24.25 0 27.95C0 31.65 3.83579 34.95 10.7291 37.35C11.9521 37.75 13.2307 38.15 14.5649 38.5C14.2313 39.7 13.9534 40.9 13.731 42.05C12.5636 48.65 13.8422 53.3 17.4 55.1C18.4563 55.65 19.6237 55.9 20.9579 55.9C24.9048 55.9 29.8524 53.3 34.8001 48.95C39.8033 53.3 44.7509 55.9 48.6422 55.9C49.9764 55.9 51.1438 55.65 52.2001 55.1C55.7579 53.25 57.0365 48.6 55.8691 42.05C55.6467 40.9 55.3688 39.7 55.0352 38.5C56.3694 38.15 57.648 37.8 58.871 37.35C65.8199 34.95 69.6001 31.65 69.6001 27.95C69.6001 24.25 65.8199 20.95 58.871 18.55ZM50.6435 3.3C52.9228 4.5 53.701 8.2 52.756 13.45C52.5892 14.5 52.3113 15.6 51.9777 16.75C49.087 16.15 46.0295 15.75 42.8052 15.5C40.9151 13.1 38.9694 10.95 37.0237 9C41.1374 5.35 45.3068 2.85 48.6978 2.85C49.4205 2.85 50.0876 3 50.6435 3.3ZM44.4173 32.95C43.4167 34.55 42.2493 36.15 41.0263 37.75C38.9694 37.9 36.9125 37.95 34.8001 37.95C32.632 37.95 30.5751 37.9 28.5738 37.75C27.3508 36.15 26.239 34.55 25.2384 32.95C24.1821 31.3 23.1815 29.6 22.292 27.95C23.1815 26.3 24.1821 24.6 25.2384 22.95C26.239 21.35 27.4064 19.75 28.6294 18.15C30.6863 18 32.7432 17.95 34.8556 17.95C37.0237 17.95 39.0806 18 41.0819 18.15C42.3049 19.75 43.4167 21.35 44.4173 22.95C45.4736 24.6 46.4742 26.3 47.3636 27.95C46.4186 29.6 45.4736 31.25 44.4173 32.95ZM49.0314 31.3C49.8652 33.05 50.5323 34.75 51.1438 36.45C49.2537 36.85 47.2525 37.15 45.14 37.4C45.8071 36.45 46.5298 35.45 47.1413 34.4C47.8084 33.35 48.4199 32.3 49.0314 31.3ZM34.8001 44.85C33.4659 43.55 32.1873 42.15 30.9643 40.7C32.2429 40.75 33.5215 40.8 34.8001 40.8C36.0786 40.8 37.3572 40.75 38.6358 40.7C37.4128 42.15 36.1342 43.55 34.8001 44.85ZM24.4601 37.35C22.3476 37.1 20.3464 36.8 18.4563 36.4C19.0678 34.75 19.7349 33 20.5687 31.25C21.1802 32.25 21.7917 33.3 22.4588 34.3C23.1259 35.4 23.793 36.35 24.4601 37.35ZM20.5687 24.6C19.7349 22.85 19.0678 21.15 18.4563 19.45C20.3464 19.05 22.3476 18.75 24.4601 18.5C23.793 19.45 23.0703 20.45 22.4588 21.5C21.7917 22.55 21.1802 23.6 20.5687 24.6ZM34.8001 11.05C36.1342 12.35 37.4128 13.75 38.6358 15.2C37.3572 15.15 36.0786 15.1 34.8001 15.1C33.5215 15.1 32.2429 15.15 30.9643 15.2C32.1873 13.75 33.4659 12.35 34.8001 11.05ZM47.1413 21.55L45.14 18.55C47.2525 18.8 49.2537 19.1 51.1438 19.5C50.5323 21.15 49.8652 22.9 49.0314 24.65C48.4199 23.6 47.8084 22.55 47.1413 21.55ZM16.8441 13.45C15.8991 8.2 16.6773 4.5 18.9566 3.3C19.5125 3 20.1796 2.85 20.9023 2.85C24.2377 2.85 28.4071 5.3 32.5764 9C30.6307 10.9 28.685 13.1 26.7949 15.5C23.5706 15.75 20.5131 16.2 17.6224 16.75C17.2888 15.6 17.0665 14.5 16.8441 13.45ZM3.1131 27.95C3.1131 25.6 6.2818 23.1 11.8409 21.25C12.9527 20.85 14.1757 20.5 15.3987 20.2C16.2882 22.7 17.4 25.35 18.7342 28C17.4 30.65 16.2326 33.25 15.3987 35.75C7.72717 33.75 3.1131 30.75 3.1131 27.95ZM18.9566 52.6C16.6773 51.4 15.8991 47.7 16.8441 42.45C17.0109 41.4 17.2888 40.3 17.6224 39.15C20.5131 39.75 23.5706 40.15 26.7949 40.4C28.685 42.8 30.6307 44.95 32.5764 46.9C28.4627 50.55 24.2933 53.05 20.9023 53.05C20.1796 53.05 19.5125 52.9 18.9566 52.6ZM52.756 42.45C53.701 47.7 52.9228 51.4 50.6435 52.6C50.0876 52.9 49.4205 53.05 48.6978 53.05C45.3624 53.05 41.193 50.6 37.0237 46.9C38.9694 45 40.9151 42.8 42.8052 40.4C46.0295 40.15 49.087 39.7 51.9777 39.15C52.3113 40.3 52.5336 41.4 52.756 42.45ZM57.7592 34.65C56.6474 35.05 55.4244 35.4 54.2014 35.7C53.3119 33.2 52.2001 30.55 50.8659 27.9C52.2001 25.25 53.3675 22.65 54.2014 20.15C61.8729 22.15 66.487 25.15 66.487 27.95C66.487 30.3 63.2627 32.8 57.7592 34.65Z" fill="#8E27CE" fill-opacity="0.72"/>
</svg>
