<svg width="93" height="93" viewBox="0 0 93 93" fill="none" xmlns="http://www.w3.org/2000/svg">
<g filter="url(#filter0_i_305_6)">
<path d="M79.0708 13.3934C70.3728 4.75249 58.7893 0 46.4792 0C21.0703 0 0.39442 20.4913 0.39442 45.6733C0.39442 53.7176 2.51183 61.5767 6.53906 68.51L0 92.1696L24.4333 85.8124C31.1592 89.4539 38.7362 91.3672 46.4585 91.3672H46.4792C71.8674 91.3672 93 70.876 93 45.6939C93 33.4938 87.7687 22.0343 79.0708 13.3934ZM46.4792 83.6727C39.5873 83.6727 32.8406 81.8417 26.9658 78.3853L25.575 77.5624L11.0853 81.3273L14.9464 67.3167L14.033 65.8766C10.1926 59.8279 8.17902 52.8535 8.17902 45.6733C8.17902 24.75 25.3674 7.71509 46.5 7.71509C56.7342 7.71509 66.3455 11.6652 73.5696 18.8454C80.7937 26.0256 85.2362 35.5511 85.2154 45.6939C85.2154 66.6378 67.5911 83.6727 46.4792 83.6727ZM67.4873 55.24C66.3455 54.664 60.6784 51.9071 59.6196 51.5368C58.5609 51.1459 57.7929 50.9607 57.0248 52.1129C56.2567 53.265 54.0563 55.8161 53.3712 56.5979C52.7069 57.3591 52.0219 57.462 50.8801 56.8859C44.1127 53.5324 39.6703 50.899 35.2071 43.3074C34.0239 41.2912 36.3904 41.4352 38.5908 37.0736C38.9645 36.3124 38.7777 35.654 38.4871 35.0779C38.1964 34.5019 35.8922 28.8853 34.9373 26.6016C34.0031 24.3797 33.0482 24.6883 32.3424 24.6471C31.6781 24.606 30.91 24.606 30.142 24.606C29.3739 24.606 28.1283 24.894 27.0696 26.0256C26.0109 27.1777 23.0424 29.9345 23.0424 35.5511C23.0424 41.1677 27.1734 46.5991 27.7339 47.3604C28.3152 48.1216 35.8507 59.6428 47.4134 64.601C54.7205 67.7282 57.5853 67.9957 61.2388 67.4607C63.46 67.1316 68.0478 64.7039 69.0027 62.0293C69.9576 59.3548 69.9576 57.0711 69.667 56.5979C69.3971 56.0836 68.629 55.7955 67.4873 55.24Z" fill="#8E27CD"/>
</g>
<defs>
<filter id="filter0_i_305_6" x="0" y="0" width="97" height="96.1694" filterUnits="userSpaceOnUse" color-interpolation-filters="sRGB">
<feFlood flood-opacity="0" result="BackgroundImageFix"/>
<feBlend mode="normal" in="SourceGraphic" in2="BackgroundImageFix" result="shape"/>
<feColorMatrix in="SourceAlpha" type="matrix" values="0 0 0 0 0 0 0 0 0 0 0 0 0 0 0 0 0 0 127 0" result="hardAlpha"/>
<feOffset dx="6" dy="5"/>
<feGaussianBlur stdDeviation="2"/>
<feComposite in2="hardAlpha" operator="arithmetic" k2="-1" k3="1"/>
<feColorMatrix type="matrix" values="0 0 0 0 0 0 0 0 0 0 0 0 0 0 0 0 0 0 0.25 0"/>
<feBlend mode="normal" in2="shape" result="effect1_innerShadow_305_6"/>
</filter>
</defs>
</svg>
